<?xml version="1.0" encoding="UTF-8"?>
<svg xmlns="http://www.w3.org/2000/svg" width="16px" height="16px" viewBox="0 0 40 40" version="1.1">
    <defs>
        <linearGradient id="header-shape-gradient" x2="0.2" y2="0.95">
            <stop offset="0%" stop-color="#E4B548"/>
            <stop offset="30%" stop-color="#F3DF2B"/>
            <stop offset="100%" stop-color="#42BF32"/>
        </linearGradient>
    </defs>
    <g id="surface1">
        <path style="fill:url(#header-shape-gradient); stroke:none;fill-rule:evenodd;fill-opacity:1;"
              d="M 29.269531 38.066406 C 28.890625 38.332031 28.484375 38.5 28.042969 38.5625 C 27.464844 38.621094 26.898438 38.640625 26.339844 38.617188 L 23.324219 38.050781 L 19.304688 36.773438 C 18.203125 36.414062 17.148438 35.902344 16.125 35.257812 L 15.355469 35.175781 C 14.15625 35.003906 13.5625 34.546875 12.890625 33.992188 C 12.03125 32.964844 11.289062 31.894531 10.734375 30.761719 L 10.363281 30.511719 L 7.433594 30.402344 L 6.953125 30.613281 C 7.222656 31.15625 7.214844 31.59375 7.234375 32.039062 C 7.152344 32.445312 7.066406 32.796875 6.960938 32.917969 C 7.421875 33.351562 7.769531 33.800781 7.875 34.269531 C 8.03125 34.527344 7.921875 34.828125 7.804688 35.015625 C 7.558594 35.15625 7.414062 34.796875 7.242188 34.628906 C 6.855469 34.269531 6.652344 34.085938 6.519531 33.601562 L 6.3125 33.847656 L 6.25 34.71875 C 6.164062 34.910156 6.378906 35.488281 6.039062 35.503906 C 5.851562 35.574219 5.636719 35.160156 5.40625 35.046875 C 5.207031 34.636719 5.285156 34.441406 5.398438 33.746094 L 5.339844 33.6875 L 5.105469 33.746094 L 4.507812 34.761719 C 4.164062 34.949219 4.171875 35.160156 3.886719 35.191406 C 3.761719 34.964844 3.558594 34.816406 3.671875 34.527344 L 4.183594 33.367188 L 4.121094 33.132812 L 3.160156 34.011719 C 2.945312 34.140625 2.738281 34.5625 2.5625 34.433594 C 2.464844 34.320312 2.375 34.195312 2.390625 33.742188 C 2.660156 33.390625 2.925781 33.144531 3.398438 33.011719 L 3.597656 32.71875 C 3.261719 32.867188 2.925781 32.972656 2.617188 32.902344 C 2.246094 32.988281 2.28125 32.691406 2.203125 32.503906 C 2.492188 32.15625 2.867188 31.992188 3.390625 32.136719 C 3.496094 31.964844 3.675781 31.898438 3.863281 31.839844 L 3.917969 29.816406 C 4.007812 29.054688 4.3125 28.394531 4.726562 27.78125 C 5.050781 27.433594 5.429688 27.203125 5.90625 27.167969 C 6.488281 27.074219 7.007812 27.140625 7.527344 27.21875 L 8.269531 27.296875 L 6.734375 23.824219 L 6.226562 20.644531 L 6.128906 18.535156 C 5.667969 18.335938 5.527344 19.21875 5.160156 19.78125 L 4.59375 19.941406 C 4.546875 19.480469 4.578125 19.128906 4.597656 18.710938 L 3.996094 19.171875 L 3.527344 19.648438 C 3.300781 19.457031 3.183594 19.410156 3.179688 19.144531 C 3.171875 18.875 3.429688 18.601562 3.429688 18.335938 C 3.273438 18.273438 3.117188 18.214844 2.96875 18.132812 L 2.320312 18.644531 C 2.199219 18.503906 1.972656 18.507812 2 18.183594 C 2.167969 17.789062 2.46875 17.570312 2.652344 17.375 L 2.511719 16.984375 C 2.308594 17.21875 2 17.285156 1.71875 16.949219 C 1.992188 16.550781 2.25 16.316406 2.609375 16.234375 L 3.316406 16.050781 L 3.71875 15.867188 L 3.75 15.351562 L 4.152344 15.152344 C 4.027344 14.179688 4.019531 13.195312 4.511719 12.164062 C 5.097656 11.324219 5.460938 10.945312 6.136719 10.460938 C 7.433594 9.5 8.0625 9.246094 9.035156 8.949219 C 9.1875 8.625 9.132812 8.25 9.511719 7.890625 C 9.691406 7.710938 10.195312 7.839844 10.539062 7.816406 C 11.289062 6.757812 12.132812 5.960938 13.046875 5.335938 C 14.539062 4.230469 15.308594 3.738281 16.894531 3.117188 C 18.433594 2.421875 19.28125 2.046875 20.769531 1.730469 C 22.355469 1.441406 23.152344 1.332031 24.449219 1.386719 C 25.304688 1.390625 26.160156 1.40625 27.03125 1.511719 C 28.953125 1.785156 30.035156 2.199219 30.609375 2.472656 C 32.167969 3.007812 33 3.601562 34.019531 4.167969 C 35.238281 4.996094 35.734375 5.601562 36.414062 6.511719 C 37.234375 7.5625 37.53125 8.089844 37.855469 8.917969 C 38.199219 10.117188 38.242188 10.519531 38.210938 11.410156 C 38.199219 12.035156 38.152344 12.691406 37.949219 13.511719 C 37.816406 13.929688 37.800781 14.175781 37.542969 14.769531 L 37.550781 14.773438 C 37.390625 14.894531 37.21875 14.960938 36.980469 14.796875 C 36.679688 13.949219 36.371094 13.125 36.105469 12.203125 L 36.074219 12.195312 C 35.71875 11.371094 35.351562 10.632812 34.785156 10.007812 C 34.347656 9.480469 34.015625 9.152344 33.234375 8.660156 C 32.347656 8.085938 31.5625 7.761719 30.398438 7.535156 C 29.09375 7.253906 28.632812 7.214844 27.246094 7.289062 C 26.089844 7.476562 25.480469 7.6875 24.488281 8.164062 C 23.628906 8.546875 23.078125 9.101562 22.238281 10.007812 L 23.769531 11.96875 L 24.957031 13.621094 L 25.566406 16.023438 L 25.835938 17.398438 C 25.851562 18.257812 26.535156 17.976562 26.992188 18.535156 C 27.464844 18.738281 27.429688 19.136719 27.363281 19.261719 C 27.082031 19.484375 26.605469 19.132812 26.390625 19.046875 L 26.140625 19.324219 C 26.304688 19.535156 26.472656 19.683594 26.625 20.066406 C 26.597656 20.320312 26.480469 20.441406 26.292969 20.433594 C 26.007812 20.347656 25.898438 20.191406 25.703125 20.066406 C 25.527344 20.003906 25.449219 19.832031 25.164062 19.941406 C 25.199219 20.246094 25.261719 20.753906 25.164062 21.125 C 25.007812 21.265625 24.8125 21.242188 24.613281 21.109375 L 24.300781 19.941406 C 23.851562 19.804688 23.71875 20.554688 23.402344 20.929688 C 23.230469 21.042969 22.941406 20.972656 22.898438 20.769531 L 22.886719 19.257812 L 22.71875 19.09375 C 22.515625 20.679688 22.324219 20.566406 22.0625 21.582031 L 21.523438 23.164062 L 21.214844 23.929688 L 21.074219 24.3125 L 20.75 24.832031 L 21.210938 25.367188 L 21.894531 25.265625 C 22.953125 24.785156 23.664062 24.550781 24.886719 24.492188 C 25.492188 24.351562 26.035156 24.386719 26.539062 24.550781 C 26.839844 24.765625 27.226562 24.925781 27.445312 25.335938 C 27.679688 25.585938 27.8125 26.023438 28.042969 26.730469 C 28.585938 27.433594 28.71875 27.949219 28.945312 28.507812 L 29.398438 28.867188 C 29.671875 28.863281 29.949219 28.859375 30.152344 29.019531 C 30.480469 29.128906 30.570312 29.351562 30.660156 29.578125 L 30.410156 29.839844 C 30.613281 30.019531 30.644531 30.328125 30.667969 30.464844 C 30.609375 30.707031 30.605469 30.730469 30.355469 30.710938 C 30.199219 30.503906 29.996094 30.382812 29.765625 30.335938 L 29.652344 30.824219 C 29.703125 31.121094 29.640625 31.292969 29.609375 31.421875 C 29.464844 31.660156 29.449219 31.574219 29.257812 31.597656 C 29.179688 31.378906 29.046875 31.246094 28.878906 30.984375 C 28.601562 30.898438 28.621094 30.867188 28.488281 31.121094 C 28.539062 31.386719 28.535156 31.289062 28.515625 31.539062 C 28.488281 31.660156 28.414062 31.824219 28.273438 31.929688 C 28.097656 31.964844 27.855469 31.886719 27.6875 31.707031 C 27.53125 31.390625 27.640625 31.464844 27.335938 31.1875 L 27.113281 31.019531 C 27.304688 31.539062 26.960938 31.46875 26.796875 31.597656 C 26.585938 31.574219 26.40625 31.507812 26.300781 31.351562 C 26.144531 31.074219 26.144531 30.675781 26.21875 30.222656 L 25.808594 29.777344 L 25.367188 28.1875 L 22.707031 28.566406 L 22.894531 29.175781 C 23.308594 29.058594 23.5625 29.160156 23.769531 29.332031 C 24.050781 29.5 24.160156 29.738281 24.191406 30.066406 C 24.277344 30.554688 24.371094 30.734375 24.46875 30.9375 C 24.78125 31.269531 25.113281 31.609375 25.273438 31.90625 L 27.011719 33.078125 L 28.648438 33.957031 L 29.101562 34.136719 L 29.636719 34.144531 C 29.828125 34.335938 29.945312 34.527344 29.972656 34.722656 C 29.894531 34.945312 29.839844 35.164062 29.71875 35.222656 C 29.847656 35.710938 29.792969 35.910156 29.804688 36.210938 L 29.464844 36.777344 C 29.480469 36.863281 29.414062 37.292969 29.269531 38.066406 Z M 29.269531 38.066406 "/>
    </g>
</svg>
